<svg xmlns="http://www.w3.org/2000/svg" width="15.998" height="16.9" viewBox="0 0 15.998 16.9">
  <g id="组_29141" data-name="组 29141" transform="translate(-502.002 -752)">
    <g id="Icon_akar-eye-open" data-name="Icon akar-eye-open" transform="translate(499.32 752.559)">
      <path id="路径_88" data-name="路径 88" d="M14.667,10.826a1,1,0,0,1,0,1.231c-.885,1.155-3.008,3.534-5.488,3.534s-4.6-2.379-5.488-3.534a1,1,0,0,1,0-1.231C4.577,9.671,6.7,7.292,9.18,7.292S13.782,9.671,14.667,10.826Z" transform="translate(0 0)" fill="none" stroke="#555" stroke-linecap="round" stroke-linejoin="round" stroke-width="1.5"/>
      <path id="路径_89" data-name="路径 89" d="M16.682,14.9A1.778,1.778,0,1,1,14.9,13.125,1.778,1.778,0,0,1,16.682,14.9Z" transform="translate(-5.724 -3.462)" fill="none" stroke="#555" stroke-linecap="round" stroke-linejoin="round" stroke-width="1.5"/>
    </g>
    <text id="R" transform="translate(513 760)" fill="#555" font-size="7" font-family="GenJyuuGothic-Bold, Gen Jyuu Gothic" font-weight="700" letter-spacing="0.1em"><tspan x="0" y="0">R</tspan></text>
  </g>
</svg>
